<svg width="151" height="48" viewBox="0 0 151 48" fill="none" xmlns="http://www.w3.org/2000/svg">
<path d="M29.5 18.9279H19.5V9H9.5V19.1442H19.5V28.8558H9.5V39H19.5V29.0721H29.5V39H39.5V28.8558H29.5V19.1442H39.5V9H29.5V18.9279Z" fill="#999999"/>
<path d="M51.2216 32V14.5455H62.5739V17.196H54.3835V21.9347H61.9858V24.5852H54.3835V29.3494H62.642V32H51.2216ZM68.0286 14.5455V32H64.9434V14.5455H68.0286ZM76.2766 32.2557C74.9641 32.2557 73.8306 31.983 72.8761 31.4375C71.9272 30.8864 71.1971 30.108 70.6857 29.1023C70.1743 28.0909 69.9187 26.9006 69.9187 25.5312C69.9187 24.1847 70.1743 23.0028 70.6857 21.9858C71.2028 20.9631 71.9243 20.1676 72.8505 19.5994C73.7766 19.0256 74.8647 18.7386 76.1147 18.7386C76.9215 18.7386 77.6829 18.8693 78.3988 19.1307C79.1204 19.3864 79.7567 19.7841 80.3079 20.3239C80.8647 20.8636 81.3022 21.5511 81.6204 22.3864C81.9386 23.2159 82.0976 24.2045 82.0976 25.3523V26.2983H71.3675V24.2188H79.1403C79.1346 23.6278 79.0067 23.1023 78.7567 22.642C78.5067 22.1761 78.1573 21.8097 77.7084 21.5426C77.2653 21.2756 76.7482 21.142 76.1573 21.142C75.5266 21.142 74.9726 21.2955 74.4954 21.6023C74.0181 21.9034 73.6459 22.3011 73.3789 22.7955C73.1175 23.2841 72.984 23.821 72.9783 24.4062V26.2216C72.9783 26.983 73.1175 27.6364 73.3959 28.1818C73.6743 28.7216 74.0636 29.1364 74.5636 29.4261C75.0636 29.7102 75.6488 29.8523 76.3192 29.8523C76.7681 29.8523 77.1743 29.7898 77.538 29.6648C77.9016 29.5341 78.217 29.3438 78.484 29.0938C78.7511 28.8438 78.9528 28.5341 79.0891 28.1648L81.9698 28.4886C81.788 29.25 81.4414 29.9148 80.93 30.483C80.4243 31.0455 79.7766 31.483 78.9868 31.7955C78.1971 32.1023 77.2937 32.2557 76.2766 32.2557ZM89.6809 37.1818C88.573 37.1818 87.6213 37.0313 86.8258 36.7301C86.0303 36.4347 85.3911 36.0369 84.9082 35.5369C84.4252 35.0369 84.09 34.483 83.9025 33.875L86.6809 33.2017C86.8059 33.4574 86.9877 33.7102 87.2264 33.9602C87.465 34.2159 87.786 34.4261 88.1894 34.5909C88.5985 34.7614 89.1127 34.8466 89.732 34.8466C90.607 34.8466 91.3315 34.6335 91.9053 34.2074C92.4792 33.7869 92.7661 33.0938 92.7661 32.1278V29.6477H92.6127C92.4536 29.9659 92.2207 30.2926 91.9139 30.6278C91.6127 30.9631 91.2122 31.2443 90.7122 31.4716C90.2178 31.6989 89.5957 31.8125 88.8457 31.8125C87.84 31.8125 86.9281 31.5767 86.1099 31.1051C85.2974 30.6278 84.6497 29.9176 84.1667 28.9744C83.6894 28.0256 83.4508 26.8381 83.4508 25.4119C83.4508 23.9744 83.6894 22.7614 84.1667 21.7727C84.6497 20.7784 85.3002 20.0256 86.1184 19.5142C86.9366 18.9972 87.8485 18.7386 88.8542 18.7386C89.6213 18.7386 90.2519 18.8693 90.7463 19.1307C91.2463 19.3864 91.644 19.696 91.9394 20.0597C92.2349 20.4176 92.4593 20.7557 92.6127 21.0739H92.7832V18.9091H95.8258V32.2131C95.8258 33.3324 95.5588 34.2585 95.0247 34.9915C94.4906 35.7244 93.7605 36.2727 92.8343 36.6364C91.9082 37 90.857 37.1818 89.6809 37.1818ZM89.7065 29.392C90.3599 29.392 90.9167 29.233 91.3769 28.9148C91.8372 28.5966 92.1866 28.1392 92.4252 27.5426C92.6639 26.946 92.7832 26.2301 92.7832 25.3949C92.7832 24.571 92.6639 23.8494 92.4252 23.2301C92.1923 22.6108 91.8457 22.1307 91.3855 21.7898C90.9309 21.4432 90.3713 21.2699 89.7065 21.2699C89.019 21.2699 88.4451 21.4489 87.9849 21.8068C87.5247 22.1648 87.1781 22.6562 86.9451 23.2812C86.7122 23.9006 86.5957 24.6051 86.5957 25.3949C86.5957 26.196 86.7122 26.8977 86.9451 27.5C87.1838 28.0966 87.5332 28.5625 87.9934 28.8977C88.4593 29.2273 89.0303 29.392 89.7065 29.392ZM102.035 32.2642C101.205 32.2642 100.458 32.1165 99.7933 31.821C99.1342 31.5199 98.6115 31.0767 98.2251 30.4915C97.8444 29.9062 97.6541 29.1847 97.6541 28.3267C97.6541 27.5881 97.7905 26.9773 98.0632 26.4943C98.3359 26.0114 98.7081 25.625 99.1797 25.3352C99.6512 25.0455 100.182 24.8267 100.773 24.679C101.37 24.5256 101.986 24.4148 102.623 24.3466C103.39 24.267 104.012 24.196 104.489 24.1335C104.967 24.0653 105.313 23.9631 105.529 23.8267C105.751 23.6847 105.861 23.4659 105.861 23.1705V23.1193C105.861 22.4773 105.671 21.9801 105.29 21.6278C104.91 21.2756 104.361 21.0994 103.646 21.0994C102.89 21.0994 102.29 21.2642 101.847 21.5938C101.41 21.9233 101.114 22.3125 100.961 22.7614L98.0802 22.3523C98.3075 21.5568 98.6825 20.892 99.2052 20.358C99.728 19.8182 100.367 19.4148 101.123 19.1477C101.879 18.875 102.714 18.7386 103.629 18.7386C104.259 18.7386 104.887 18.8125 105.512 18.9602C106.137 19.108 106.708 19.3523 107.225 19.6932C107.742 20.0284 108.157 20.4858 108.469 21.0653C108.788 21.6449 108.947 22.3693 108.947 23.2386V32H105.981V30.2017H105.879C105.691 30.5653 105.427 30.9062 105.086 31.2244C104.751 31.5369 104.327 31.7898 103.816 31.983C103.31 32.1705 102.717 32.2642 102.035 32.2642ZM102.836 29.9972C103.455 29.9972 103.992 29.875 104.447 29.6307C104.901 29.3807 105.251 29.0511 105.495 28.642C105.745 28.233 105.87 27.7869 105.87 27.304V25.7614C105.773 25.8409 105.609 25.9148 105.376 25.983C105.148 26.0511 104.893 26.1108 104.609 26.1619C104.325 26.2131 104.043 26.2585 103.765 26.2983C103.486 26.3381 103.245 26.3722 103.04 26.4006C102.58 26.4631 102.168 26.5653 101.805 26.7074C101.441 26.8494 101.154 27.0483 100.944 27.304C100.734 27.554 100.629 27.8778 100.629 28.2756C100.629 28.8438 100.836 29.2727 101.251 29.5625C101.665 29.8523 102.194 29.9972 102.836 29.9972ZM114.414 24.3295V32H111.329V18.9091H114.278V21.1335H114.431C114.732 20.4006 115.213 19.8182 115.872 19.3864C116.536 18.9545 117.357 18.7386 118.335 18.7386C119.238 18.7386 120.025 18.9318 120.695 19.3182C121.372 19.7045 121.894 20.2642 122.264 20.9972C122.639 21.7301 122.823 22.6193 122.818 23.6648V32H119.732V24.142C119.732 23.267 119.505 22.5824 119.051 22.0881C118.602 21.5937 117.98 21.3466 117.184 21.3466C116.644 21.3466 116.164 21.4659 115.744 21.7045C115.329 21.9375 115.002 22.2756 114.764 22.7188C114.531 23.1619 114.414 23.6989 114.414 24.3295ZM125.064 32V30.0398L131.814 21.5767V21.4659H125.285V18.9091H135.589V21.0142L129.163 29.3324V29.4432H135.811V32H125.064ZM141.758 32.2642C140.928 32.2642 140.181 32.1165 139.516 31.821C138.857 31.5199 138.334 31.0767 137.948 30.4915C137.567 29.9062 137.377 29.1847 137.377 28.3267C137.377 27.5881 137.513 26.9773 137.786 26.4943C138.059 26.0114 138.431 25.625 138.902 25.3352C139.374 25.0455 139.905 24.8267 140.496 24.679C141.093 24.5256 141.709 24.4148 142.346 24.3466C143.113 24.267 143.735 24.196 144.212 24.1335C144.689 24.0653 145.036 23.9631 145.252 23.8267C145.473 23.6847 145.584 23.4659 145.584 23.1705V23.1193C145.584 22.4773 145.394 21.9801 145.013 21.6278C144.633 21.2756 144.084 21.0994 143.368 21.0994C142.613 21.0994 142.013 21.2642 141.57 21.5938C141.133 21.9233 140.837 22.3125 140.684 22.7614L137.803 22.3523C138.03 21.5568 138.405 20.892 138.928 20.358C139.451 19.8182 140.09 19.4148 140.846 19.1477C141.601 18.875 142.437 18.7386 143.351 18.7386C143.982 18.7386 144.61 18.8125 145.235 18.9602C145.86 19.108 146.431 19.3523 146.948 19.6932C147.465 20.0284 147.88 20.4858 148.192 21.0653C148.51 21.6449 148.67 22.3693 148.67 23.2386V32H145.704V30.2017H145.601C145.414 30.5653 145.15 30.9062 144.809 31.2244C144.473 31.5369 144.05 31.7898 143.539 31.983C143.033 32.1705 142.439 32.2642 141.758 32.2642ZM142.559 29.9972C143.178 29.9972 143.715 29.875 144.17 29.6307C144.624 29.3807 144.973 29.0511 145.218 28.642C145.468 28.233 145.593 27.7869 145.593 27.304V25.7614C145.496 25.8409 145.331 25.9148 145.098 25.983C144.871 26.0511 144.616 26.1108 144.331 26.1619C144.047 26.2131 143.766 26.2585 143.488 26.2983C143.209 26.3381 142.968 26.3722 142.763 26.4006C142.303 26.4631 141.891 26.5653 141.527 26.7074C141.164 26.8494 140.877 27.0483 140.667 27.304C140.456 27.554 140.351 27.8778 140.351 28.2756C140.351 28.8438 140.559 29.2727 140.973 29.5625C141.388 29.8523 141.917 29.9972 142.559 29.9972Z" fill="#999999"/>
</svg>
