<svg width="161" height="48" viewBox="0 0 161 48" fill="none" xmlns="http://www.w3.org/2000/svg">
<path d="M66.5653 14.5455V32H63.7528L55.5284 20.1108H55.3835V32H52.2216V14.5455H55.0511L63.267 26.4432H63.4205V14.5455H66.5653ZM74.9497 32.2557C73.6372 32.2557 72.5037 31.983 71.5492 31.4375C70.6003 30.8864 69.8702 30.108 69.3588 29.1023C68.8475 28.0909 68.5918 26.9006 68.5918 25.5312C68.5918 24.1847 68.8475 23.0028 69.3588 21.9858C69.8759 20.9631 70.5975 20.1676 71.5236 19.5994C72.4497 19.0256 73.5378 18.7386 74.7878 18.7386C75.5946 18.7386 76.356 18.8693 77.0719 19.1307C77.7935 19.3864 78.4299 19.7841 78.981 20.3239C79.5378 20.8636 79.9753 21.5511 80.2935 22.3864C80.6117 23.2159 80.7708 24.2045 80.7708 25.3523V26.2983H70.0407V24.2188H77.8134C77.8077 23.6278 77.6799 23.1023 77.4299 22.642C77.1799 22.1761 76.8304 21.8097 76.3816 21.5426C75.9384 21.2756 75.4213 21.142 74.8304 21.142C74.1997 21.142 73.6458 21.2955 73.1685 21.6023C72.6912 21.9034 72.3191 22.3011 72.052 22.7955C71.7907 23.2841 71.6571 23.821 71.6514 24.4062V26.2216C71.6514 26.983 71.7907 27.6364 72.0691 28.1818C72.3475 28.7216 72.7367 29.1364 73.2367 29.4261C73.7367 29.7102 74.3219 29.8523 74.9924 29.8523C75.4412 29.8523 75.8475 29.7898 76.2111 29.6648C76.5747 29.5341 76.8901 29.3438 77.1571 29.0938C77.4242 28.8438 77.6259 28.5341 77.7622 28.1648L80.6429 28.4886C80.4611 29.25 80.1145 29.9148 79.6032 30.483C79.0975 31.0455 78.4497 31.483 77.66 31.7955C76.8702 32.1023 75.9668 32.2557 74.9497 32.2557ZM84.9023 18.9091L87.5444 23.7415L90.229 18.9091H93.4932L89.5472 25.4545L93.5614 32H90.3143L87.5444 27.2869L84.8001 32H81.5273L85.516 25.4545L81.6296 18.9091H84.9023ZM98.8798 32.2642C98.0502 32.2642 97.3031 32.1165 96.6383 31.821C95.9792 31.5199 95.4565 31.0767 95.0701 30.4915C94.6894 29.9062 94.4991 29.1847 94.4991 28.3267C94.4991 27.5881 94.6355 26.9773 94.9082 26.4943C95.1809 26.0114 95.5531 25.625 96.0247 25.3352C96.4963 25.0455 97.0275 24.8267 97.6184 24.679C98.215 24.5256 98.8315 24.4148 99.4678 24.3466C100.235 24.267 100.857 24.196 101.334 24.1335C101.812 24.0653 102.158 23.9631 102.374 23.8267C102.596 23.6847 102.706 23.4659 102.706 23.1705V23.1193C102.706 22.4773 102.516 21.9801 102.135 21.6278C101.755 21.2756 101.206 21.0994 100.491 21.0994C99.7349 21.0994 99.1355 21.2642 98.6923 21.5938C98.2548 21.9233 97.9593 22.3125 97.8059 22.7614L94.9252 22.3523C95.1525 21.5568 95.5275 20.892 96.0502 20.358C96.573 19.8182 97.2122 19.4148 97.9678 19.1477C98.7235 18.875 99.5588 18.7386 100.474 18.7386C101.104 18.7386 101.732 18.8125 102.357 18.9602C102.982 19.108 103.553 19.3523 104.07 19.6932C104.587 20.0284 105.002 20.4858 105.314 21.0653C105.633 21.6449 105.792 22.3693 105.792 23.2386V32H102.826V30.2017H102.724C102.536 30.5653 102.272 30.9062 101.931 31.2244C101.596 31.5369 101.172 31.7898 100.661 31.983C100.155 32.1705 99.5616 32.2642 98.8798 32.2642ZM99.6809 29.9972C100.3 29.9972 100.837 29.875 101.292 29.6307C101.746 29.3807 102.096 29.0511 102.34 28.642C102.59 28.233 102.715 27.7869 102.715 27.304V25.7614C102.618 25.8409 102.454 25.9148 102.221 25.983C101.993 26.0511 101.738 26.1108 101.454 26.1619C101.17 26.2131 100.888 26.2585 100.61 26.2983C100.331 26.3381 100.09 26.3722 99.8855 26.4006C99.4252 26.4631 99.0133 26.5653 98.6497 26.7074C98.286 26.8494 97.9991 27.0483 97.7889 27.304C97.5786 27.554 97.4735 27.8778 97.4735 28.2756C97.4735 28.8438 97.6809 29.2727 98.0957 29.5625C98.5105 29.8523 99.0389 29.9972 99.6809 29.9972ZM106.442 17.196V14.5455H120.368V17.196H114.973V32H111.837V17.196H106.442ZM126.093 32.2557C124.781 32.2557 123.647 31.983 122.693 31.4375C121.744 30.8864 121.014 30.108 120.502 29.1023C119.991 28.0909 119.735 26.9006 119.735 25.5312C119.735 24.1847 119.991 23.0028 120.502 21.9858C121.019 20.9631 121.741 20.1676 122.667 19.5994C123.593 19.0256 124.681 18.7386 125.931 18.7386C126.738 18.7386 127.499 18.8693 128.215 19.1307C128.937 19.3864 129.573 19.7841 130.124 20.3239C130.681 20.8636 131.119 21.5511 131.437 22.3864C131.755 23.2159 131.914 24.2045 131.914 25.3523V26.2983H121.184V24.2188H128.957C128.951 23.6278 128.823 23.1023 128.573 22.642C128.323 22.1761 127.974 21.8097 127.525 21.5426C127.082 21.2756 126.565 21.142 125.974 21.142C125.343 21.142 124.789 21.2955 124.312 21.6023C123.835 21.9034 123.463 22.3011 123.195 22.7955C122.934 23.2841 122.801 23.821 122.795 24.4062V26.2216C122.795 26.983 122.934 27.6364 123.213 28.1818C123.491 28.7216 123.88 29.1364 124.38 29.4261C124.88 29.7102 125.465 29.8523 126.136 29.8523C126.585 29.8523 126.991 29.7898 127.355 29.6648C127.718 29.5341 128.034 29.3438 128.301 29.0938C128.568 28.8438 128.769 28.5341 128.906 28.1648L131.786 28.4886C131.605 29.25 131.258 29.9148 130.747 30.483C130.241 31.0455 129.593 31.483 128.803 31.7955C128.014 32.1023 127.11 32.2557 126.093 32.2557ZM139.515 32.2557C138.208 32.2557 137.086 31.9688 136.148 31.3949C135.216 30.821 134.497 30.0284 133.992 29.017C133.492 28 133.242 26.8295 133.242 25.5057C133.242 24.1761 133.497 23.0028 134.009 21.9858C134.52 20.9631 135.242 20.1676 136.174 19.5994C137.111 19.0256 138.219 18.7386 139.497 18.7386C140.56 18.7386 141.5 18.9347 142.318 19.3267C143.142 19.7131 143.799 20.2614 144.287 20.9716C144.776 21.6761 145.054 22.5 145.122 23.4432H142.174C142.054 22.8125 141.77 22.2869 141.321 21.8665C140.878 21.4403 140.284 21.2273 139.54 21.2273C138.909 21.2273 138.355 21.3977 137.878 21.7386C137.401 22.0739 137.029 22.5568 136.762 23.1875C136.5 23.8182 136.37 24.5739 136.37 25.4545C136.37 26.3466 136.5 27.1136 136.762 27.7557C137.023 28.392 137.39 28.8835 137.861 29.2301C138.338 29.571 138.898 29.7415 139.54 29.7415C139.995 29.7415 140.401 29.6562 140.759 29.4858C141.122 29.3097 141.426 29.0568 141.671 28.7273C141.915 28.3977 142.083 27.9972 142.174 27.5256H145.122C145.049 28.4517 144.776 29.2727 144.304 29.9886C143.833 30.6989 143.191 31.2557 142.378 31.6591C141.566 32.0568 140.611 32.2557 139.515 32.2557ZM150.021 24.3295V32H146.936V14.5455H149.953V21.1335H150.106C150.413 20.3949 150.888 19.8125 151.53 19.3864C152.177 18.9545 153.001 18.7386 154.001 18.7386C154.91 18.7386 155.703 18.929 156.379 19.3097C157.055 19.6903 157.578 20.2472 157.947 20.9801C158.322 21.7131 158.51 22.608 158.51 23.6648V32H155.424V24.142C155.424 23.2614 155.197 22.5767 154.743 22.0881C154.294 21.5937 153.663 21.3466 152.851 21.3466C152.305 21.3466 151.817 21.4659 151.385 21.7045C150.959 21.9375 150.623 22.2756 150.379 22.7188C150.14 23.1619 150.021 23.6989 150.021 24.3295Z" fill="#999999"/>
<path d="M32.9682 8L36.6978 11.6149L31.6884 16.4681C29.9856 18.1193 27.731 18.9549 25.4985 18.9521C23.2676 18.9549 21.0114 18.1193 19.3086 16.4681L14.2993 11.6149L18.0289 8L23.0382 12.8532C23.7247 13.5154 24.599 13.8379 25.4971 13.8408C26.3951 13.8379 27.2694 13.5169 27.9558 12.8532L32.9652 8H32.9682ZM41.4985 30.7354L36.4892 25.8822C35.8057 25.2171 35.4743 24.37 35.4713 23.5C35.4743 22.6285 35.8057 21.7814 36.4892 21.1178L41.4985 16.2646L37.7689 12.6497L32.7595 17.503C31.0552 19.1527 30.1928 21.3385 30.1957 23.5C30.1928 25.6615 31.0552 27.8473 32.7595 29.4956L37.7689 34.3489L41.5 30.7354H41.4985ZM18.0304 39L23.0397 34.1467C23.7262 33.4831 24.599 33.1621 25.4985 33.1592C26.3965 33.1621 27.2709 33.4831 27.9573 34.1467L32.9667 39L36.6978 35.3851L31.6884 30.5319C29.9856 28.8807 27.731 28.0451 25.4985 28.0479C23.2676 28.0451 21.0114 28.8807 19.3086 30.5319L14.2993 35.3851L18.0304 39ZM9.5 16.2646L14.5094 21.1178C15.1928 21.7829 15.5242 22.63 15.5272 23.5C15.5242 24.37 15.1928 25.2171 14.5094 25.8822L9.5 30.7354L13.2311 34.3503L18.2405 29.497C19.9448 27.8473 20.8073 25.6629 20.8043 23.5014C20.8073 21.34 19.9448 19.1542 18.2405 17.5044L13.2311 12.6511L9.5 16.266V16.2646Z" fill="#999999"/>
</svg>
