<svg width="158" height="48" viewBox="0 0 158 48" fill="none" xmlns="http://www.w3.org/2000/svg">
<path d="M52.2216 32V14.5455H63.5739V17.196H55.3835V21.9347H62.9858V24.5852H55.3835V29.3494H63.642V32H52.2216ZM69.0286 24.3295V32H65.9434V18.9091H68.8922V21.1335H69.0456C69.3468 20.4006 69.8269 19.8182 70.486 19.3864C71.1507 18.9545 71.9718 18.7386 72.949 18.7386C73.8524 18.7386 74.6394 18.9318 75.3098 19.3182C75.986 19.7045 76.5087 20.2642 76.878 20.9972C77.253 21.7301 77.4377 22.6193 77.432 23.6648V32H74.3468V24.142C74.3468 23.267 74.1195 22.5824 73.6649 22.0881C73.2161 21.5937 72.5939 21.3466 71.7985 21.3466C71.2587 21.3466 70.7786 21.4659 70.3581 21.7045C69.9434 21.9375 69.6166 22.2756 69.378 22.7188C69.1451 23.1619 69.0286 23.6989 69.0286 24.3295ZM85.6438 32.2557C84.3313 32.2557 83.1978 31.983 82.2432 31.4375C81.2944 30.8864 80.5643 30.108 80.0529 29.1023C79.5415 28.0909 79.2859 26.9006 79.2859 25.5312C79.2859 24.1847 79.5415 23.0028 80.0529 21.9858C80.5699 20.9631 81.2915 20.1676 82.2177 19.5994C83.1438 19.0256 84.2319 18.7386 85.4819 18.7386C86.2887 18.7386 87.0501 18.8693 87.766 19.1307C88.4876 19.3864 89.1239 19.7841 89.6751 20.3239C90.2319 20.8636 90.6694 21.5511 90.9876 22.3864C91.3057 23.2159 91.4648 24.2045 91.4648 25.3523V26.2983H80.7347V24.2188H88.5074C88.5018 23.6278 88.3739 23.1023 88.1239 22.642C87.8739 22.1761 87.5245 21.8097 87.0756 21.5426C86.6324 21.2756 86.1154 21.142 85.5245 21.142C84.8938 21.142 84.3398 21.2955 83.8626 21.6023C83.3853 21.9034 83.0131 22.3011 82.7461 22.7955C82.4847 23.2841 82.3512 23.821 82.3455 24.4062V26.2216C82.3455 26.983 82.4847 27.6364 82.7631 28.1818C83.0415 28.7216 83.4307 29.1364 83.9307 29.4261C84.4307 29.7102 85.016 29.8523 85.6864 29.8523C86.1353 29.8523 86.5415 29.7898 86.9052 29.6648C87.2688 29.5341 87.5841 29.3438 87.8512 29.0938C88.1182 28.8438 88.3199 28.5341 88.4563 28.1648L91.337 28.4886C91.1552 29.25 90.8086 29.9148 90.2972 30.483C89.7915 31.0455 89.1438 31.483 88.354 31.7955C87.5643 32.1023 86.6609 32.2557 85.6438 32.2557ZM93.3549 32V18.9091H96.3464V21.0909H96.4828C96.7214 20.3352 97.1305 19.7528 97.71 19.3438C98.2953 18.929 98.9629 18.7216 99.7129 18.7216C99.8833 18.7216 100.074 18.7301 100.284 18.7472C100.5 18.7585 100.679 18.7784 100.821 18.8068V21.6449C100.69 21.5994 100.483 21.5597 100.199 21.5256C99.9203 21.4858 99.6504 21.4659 99.389 21.4659C98.8265 21.4659 98.3208 21.5881 97.872 21.8324C97.4288 22.071 97.0793 22.4034 96.8237 22.8295C96.568 23.2557 96.4401 23.7472 96.4401 24.304V32H93.3549ZM107.305 37.1818C106.197 37.1818 105.245 37.0313 104.45 36.7301C103.654 36.4347 103.015 36.0369 102.532 35.5369C102.049 35.0369 101.714 34.483 101.526 33.875L104.305 33.2017C104.43 33.4574 104.611 33.7102 104.85 33.9602C105.089 34.2159 105.41 34.4261 105.813 34.5909C106.222 34.7614 106.736 34.8466 107.356 34.8466C108.231 34.8466 108.955 34.6335 109.529 34.2074C110.103 33.7869 110.39 33.0938 110.39 32.1278V29.6477H110.236C110.077 29.9659 109.844 30.2926 109.538 30.6278C109.236 30.9631 108.836 31.2443 108.336 31.4716C107.842 31.6989 107.219 31.8125 106.469 31.8125C105.464 31.8125 104.552 31.5767 103.734 31.1051C102.921 30.6278 102.273 29.9176 101.79 28.9744C101.313 28.0256 101.075 26.8381 101.075 25.4119C101.075 23.9744 101.313 22.7614 101.79 21.7727C102.273 20.7784 102.924 20.0256 103.742 19.5142C104.56 18.9972 105.472 18.7386 106.478 18.7386C107.245 18.7386 107.876 18.8693 108.37 19.1307C108.87 19.3864 109.268 19.696 109.563 20.0597C109.859 20.4176 110.083 20.7557 110.236 21.0739H110.407V18.9091H113.45V32.2131C113.45 33.3324 113.182 34.2585 112.648 34.9915C112.114 35.7244 111.384 36.2727 110.458 36.6364C109.532 37 108.481 37.1818 107.305 37.1818ZM107.33 29.392C107.984 29.392 108.54 29.233 109.001 28.9148C109.461 28.5966 109.81 28.1392 110.049 27.5426C110.288 26.946 110.407 26.2301 110.407 25.3949C110.407 24.571 110.288 23.8494 110.049 23.2301C109.816 22.6108 109.469 22.1307 109.009 21.7898C108.555 21.4432 107.995 21.2699 107.33 21.2699C106.643 21.2699 106.069 21.4489 105.609 21.8068C105.148 22.1648 104.802 22.6562 104.569 23.2812C104.336 23.9006 104.219 24.6051 104.219 25.3949C104.219 26.196 104.336 26.8977 104.569 27.5C104.807 28.0966 105.157 28.5625 105.617 28.8977C106.083 29.2273 106.654 29.392 107.33 29.392ZM121.687 32.2557C120.374 32.2557 119.241 31.983 118.286 31.4375C117.338 30.8864 116.607 30.108 116.096 29.1023C115.585 28.0909 115.329 26.9006 115.329 25.5312C115.329 24.1847 115.585 23.0028 116.096 21.9858C116.613 20.9631 117.335 20.1676 118.261 19.5994C119.187 19.0256 120.275 18.7386 121.525 18.7386C122.332 18.7386 123.093 18.8693 123.809 19.1307C124.531 19.3864 125.167 19.7841 125.718 20.3239C126.275 20.8636 126.713 21.5511 127.031 22.3864C127.349 23.2159 127.508 24.2045 127.508 25.3523V26.2983H116.778V24.2188H124.551C124.545 23.6278 124.417 23.1023 124.167 22.642C123.917 22.1761 123.568 21.8097 123.119 21.5426C122.676 21.2756 122.159 21.142 121.568 21.142C120.937 21.142 120.383 21.2955 119.906 21.6023C119.428 21.9034 119.056 22.3011 118.789 22.7955C118.528 23.2841 118.394 23.821 118.389 24.4062V26.2216C118.389 26.983 118.528 27.6364 118.806 28.1818C119.085 28.7216 119.474 29.1364 119.974 29.4261C120.474 29.7102 121.059 29.8523 121.73 29.8523C122.178 29.8523 122.585 29.7898 122.948 29.6648C123.312 29.5341 123.627 29.3438 123.894 29.0938C124.161 28.8438 124.363 28.5341 124.499 28.1648L127.38 28.4886C127.198 29.25 126.852 29.9148 126.34 30.483C125.835 31.0455 125.187 31.483 124.397 31.7955C123.607 32.1023 122.704 32.2557 121.687 32.2557ZM135.935 18.9091V21.2955H128.409V18.9091H135.935ZM130.267 15.7727H133.353V28.0625C133.353 28.4773 133.415 28.7955 133.54 29.017C133.671 29.233 133.841 29.3807 134.051 29.4602C134.262 29.5398 134.495 29.5795 134.75 29.5795C134.943 29.5795 135.12 29.5653 135.279 29.5369C135.443 29.5085 135.568 29.483 135.654 29.4602L136.174 31.8722C136.009 31.929 135.773 31.9915 135.466 32.0597C135.165 32.1278 134.796 32.1676 134.358 32.179C133.586 32.2017 132.89 32.0852 132.27 31.8295C131.651 31.5682 131.159 31.1648 130.796 30.6193C130.438 30.0739 130.262 29.392 130.267 28.5739V15.7727ZM137.795 32V18.9091H140.88V32H137.795ZM139.346 17.0511C138.858 17.0511 138.437 16.8892 138.085 16.5653C137.733 16.2358 137.557 15.8409 137.557 15.3807C137.557 14.9148 137.733 14.5199 138.085 14.196C138.437 13.8665 138.858 13.7017 139.346 13.7017C139.841 13.7017 140.261 13.8665 140.608 14.196C140.96 14.5199 141.136 14.9148 141.136 15.3807C141.136 15.8409 140.96 16.2358 140.608 16.5653C140.261 16.8892 139.841 17.0511 139.346 17.0511ZM145.856 18.9091L148.498 23.7415L151.182 18.9091H154.447L150.501 25.4545L154.515 32H151.268L148.498 27.2869L145.753 32H142.481L146.469 25.4545L142.583 18.9091H145.856Z" fill="#999999"/>
<path d="M22.7393 20.2692C25.1635 14.4908 33.4936 12.9633 37.8138 17.5499C42.1748 21.6078 41.0397 29.5768 35.7558 32.2635C36.2526 29.0128 35.1555 25.6548 32.9573 23.3595C30.4406 20.6225 26.3667 19.394 22.7393 20.2678V20.2692ZM34.479 30.6925C34.4818 27.1306 32.4591 23.9452 29.3421 22.3742C30.7142 29.4858 23.8418 36.2073 16.7082 34.6295C18.2177 37.8299 21.3891 39.954 25.0587 39.9974C30.1806 40.1211 34.5485 35.7425 34.4777 30.6925H34.479ZM23.1408 28.7723C17.2717 27.7571 13.2278 21.5398 14.7454 15.7343C9.06409 18.1967 7.67301 26.5436 12.1824 30.7115C16.2427 35.0127 24.0038 33.9881 26.82 28.8321C25.6249 29.0237 24.3237 28.9992 23.1422 28.7723H23.1408ZM15.8357 18.2647C15.8357 21.7464 17.7617 24.8666 20.7671 26.477C18.935 19.2391 25.8808 12.0215 33.2377 13.6238C28.5391 5.43592 15.8153 8.82931 15.8357 18.266V18.2647Z" fill="#999999"/>
</svg>
