<svg width="158" height="48" viewBox="0 0 158 48" fill="none" xmlns="http://www.w3.org/2000/svg">
<path d="M50.8977 32V30.0312L59.8466 17.196H50.8466V14.5455H63.767V16.5142L54.8267 29.3494H63.8182V32H50.8977ZM71.8169 32.2557C70.5044 32.2557 69.3709 31.983 68.4164 31.4375C67.4675 30.8864 66.7374 30.108 66.226 29.1023C65.7147 28.0909 65.459 26.9006 65.459 25.5312C65.459 24.1847 65.7147 23.0028 66.226 21.9858C66.7431 20.9631 67.4647 20.1676 68.3908 19.5994C69.3169 19.0256 70.405 18.7386 71.655 18.7386C72.4618 18.7386 73.2232 18.8693 73.9391 19.1307C74.6607 19.3864 75.297 19.7841 75.8482 20.3239C76.405 20.8636 76.8425 21.5511 77.1607 22.3864C77.4789 23.2159 77.638 24.2045 77.638 25.3523V26.2983H66.9078V24.2188H74.6806C74.6749 23.6278 74.547 23.1023 74.297 22.642C74.047 22.1761 73.6976 21.8097 73.2487 21.5426C72.8056 21.2756 72.2885 21.142 71.6976 21.142C71.0669 21.142 70.513 21.2955 70.0357 21.6023C69.5584 21.9034 69.1862 22.3011 68.9192 22.7955C68.6578 23.2841 68.5243 23.821 68.5186 24.4062V26.2216C68.5186 26.983 68.6578 27.6364 68.9362 28.1818C69.2147 28.7216 69.6039 29.1364 70.1039 29.4261C70.6039 29.7102 71.1891 29.8523 71.8595 29.8523C72.3084 29.8523 72.7147 29.7898 73.0783 29.6648C73.4419 29.5341 73.7573 29.3438 74.0243 29.0938C74.2914 28.8438 74.4931 28.5341 74.6294 28.1648L77.5101 28.4886C77.3283 29.25 76.9817 29.9148 76.4703 30.483C75.9647 31.0455 75.3169 31.483 74.5272 31.7955C73.7374 32.1023 72.834 32.2557 71.8169 32.2557ZM89.8746 22.3693L87.0621 22.6761C86.9826 22.392 86.8434 22.125 86.6445 21.875C86.4513 21.625 86.19 21.4233 85.8604 21.2699C85.5309 21.1165 85.1275 21.0398 84.6502 21.0398C84.0082 21.0398 83.4684 21.179 83.0309 21.4574C82.5991 21.7358 82.386 22.0966 82.3917 22.5398C82.386 22.9205 82.5252 23.2301 82.8093 23.4688C83.0991 23.7074 83.5763 23.9034 84.2411 24.0568L86.4741 24.5341C87.7127 24.8011 88.6332 25.2244 89.2354 25.804C89.8434 26.3835 90.1502 27.142 90.1559 28.0795C90.1502 28.9034 89.9087 29.6307 89.4314 30.2614C88.9599 30.8864 88.3036 31.375 87.4627 31.7273C86.6218 32.0795 85.6559 32.2557 84.565 32.2557C82.9627 32.2557 81.6729 31.9205 80.6957 31.25C79.7184 30.5739 79.136 29.6335 78.9485 28.429L81.957 28.1392C82.0934 28.7301 82.3832 29.1761 82.8263 29.4773C83.2695 29.7784 83.8462 29.929 84.5564 29.929C85.2894 29.929 85.8775 29.7784 86.3207 29.4773C86.7695 29.1761 86.9939 28.804 86.9939 28.3608C86.9939 27.9858 86.8491 27.6761 86.5593 27.4318C86.2752 27.1875 85.832 27 85.2297 26.8693L82.9968 26.4006C81.7411 26.1392 80.8121 25.6989 80.2099 25.0795C79.6076 24.4545 79.3093 23.6648 79.315 22.7102C79.3093 21.9034 79.528 21.2045 79.9712 20.6136C80.4201 20.017 81.0422 19.5568 81.8377 19.233C82.6388 18.9034 83.5621 18.7386 84.6076 18.7386C86.1417 18.7386 87.3491 19.0653 88.2297 19.7188C89.1161 20.3722 89.6644 21.2557 89.8746 22.3693ZM98.5168 18.9091V21.2955H90.9913V18.9091H98.5168ZM92.8492 15.7727H95.9345V28.0625C95.9345 28.4773 95.997 28.7955 96.122 29.017C96.2526 29.233 96.4231 29.3807 96.6333 29.4602C96.8436 29.5398 97.0765 29.5795 97.3322 29.5795C97.5254 29.5795 97.7015 29.5653 97.8606 29.5369C98.0254 29.5085 98.1504 29.483 98.2356 29.4602L98.7555 31.8722C98.5907 31.929 98.3549 31.9915 98.0481 32.0597C97.747 32.1278 97.3776 32.1676 96.9401 32.179C96.1674 32.2017 95.4714 32.0852 94.8521 31.8295C94.2328 31.5682 93.7413 31.1648 93.3776 30.6193C93.0197 30.0739 92.8436 29.392 92.8492 28.5739V15.7727ZM102.295 36.9091C101.874 36.9091 101.485 36.875 101.127 36.8068C100.775 36.7443 100.494 36.6705 100.283 36.5852L100.999 34.1818C101.448 34.3125 101.849 34.375 102.201 34.3693C102.553 34.3636 102.863 34.2528 103.13 34.0369C103.403 33.8267 103.633 33.4744 103.82 32.9801L104.084 32.2727L99.3373 18.9091H102.61L105.627 28.7955H105.763L108.789 18.9091H112.07L106.829 33.5852C106.584 34.2784 106.261 34.8722 105.857 35.3665C105.454 35.8665 104.959 36.2472 104.374 36.5085C103.795 36.7756 103.102 36.9091 102.295 36.9091ZM113.622 32V14.5455H120.303C121.565 14.5455 122.613 14.7443 123.448 15.142C124.289 15.5341 124.917 16.071 125.332 16.7528C125.752 17.4347 125.963 18.2074 125.963 19.071C125.963 19.7812 125.826 20.3892 125.553 20.8949C125.281 21.3949 124.914 21.8011 124.454 22.1136C123.994 22.4261 123.48 22.6506 122.911 22.7869V22.9574C123.531 22.9915 124.124 23.1818 124.693 23.5284C125.266 23.8693 125.735 24.3523 126.099 24.9773C126.463 25.6023 126.644 26.358 126.644 27.2443C126.644 28.1477 126.426 28.9602 125.988 29.6818C125.551 30.3977 124.891 30.9631 124.011 31.3778C123.13 31.7926 122.022 32 120.687 32H113.622ZM116.784 29.358H120.184C121.332 29.358 122.159 29.1392 122.664 28.7017C123.176 28.2585 123.431 27.6903 123.431 26.9972C123.431 26.4801 123.303 26.0142 123.048 25.5994C122.792 25.179 122.428 24.8494 121.957 24.6108C121.485 24.3665 120.923 24.2443 120.269 24.2443H116.784V29.358ZM116.784 21.9688H119.911C120.457 21.9688 120.948 21.8693 121.386 21.6705C121.823 21.4659 122.167 21.179 122.417 20.8097C122.673 20.4347 122.801 19.9915 122.801 19.4801C122.801 18.804 122.562 18.2472 122.085 17.8097C121.613 17.3722 120.911 17.1534 119.98 17.1534H116.784V21.9688ZM128.539 32V18.9091H131.624V32H128.539ZM130.09 17.0511C129.601 17.0511 129.181 16.8892 128.828 16.5653C128.476 16.2358 128.3 15.8409 128.3 15.3807C128.3 14.9148 128.476 14.5199 128.828 14.196C129.181 13.8665 129.601 13.7017 130.09 13.7017C130.584 13.7017 131.005 13.8665 131.351 14.196C131.703 14.5199 131.88 14.9148 131.88 15.3807C131.88 15.8409 131.703 16.2358 131.351 16.5653C131.005 16.8892 130.584 17.0511 130.09 17.0511ZM140.613 18.9091V21.2955H133.088V18.9091H140.613ZM134.946 15.7727H138.031V28.0625C138.031 28.4773 138.094 28.7955 138.219 29.017C138.349 29.233 138.52 29.3807 138.73 29.4602C138.94 29.5398 139.173 29.5795 139.429 29.5795C139.622 29.5795 139.798 29.5653 139.957 29.5369C140.122 29.5085 140.247 29.483 140.332 29.4602L140.852 31.8722C140.687 31.929 140.451 31.9915 140.145 32.0597C139.844 32.1278 139.474 32.1676 139.037 32.179C138.264 32.2017 137.568 32.0852 136.949 31.8295C136.329 31.5682 135.838 31.1648 135.474 30.6193C135.116 30.0739 134.94 29.392 134.946 28.5739V15.7727ZM148.128 32.2557C146.816 32.2557 145.682 31.983 144.728 31.4375C143.779 30.8864 143.049 30.108 142.538 29.1023C142.026 28.0909 141.771 26.9006 141.771 25.5312C141.771 24.1847 142.026 23.0028 142.538 21.9858C143.055 20.9631 143.776 20.1676 144.702 19.5994C145.628 19.0256 146.717 18.7386 147.967 18.7386C148.773 18.7386 149.535 18.8693 150.251 19.1307C150.972 19.3864 151.609 19.7841 152.16 20.3239C152.717 20.8636 153.154 21.5511 153.472 22.3864C153.79 23.2159 153.95 24.2045 153.95 25.3523V26.2983H143.219V24.2188H150.992C150.986 23.6278 150.859 23.1023 150.609 22.642C150.359 22.1761 150.009 21.8097 149.56 21.5426C149.117 21.2756 148.6 21.142 148.009 21.142C147.378 21.142 146.825 21.2955 146.347 21.6023C145.87 21.9034 145.498 22.3011 145.231 22.7955C144.969 23.2841 144.836 23.821 144.83 24.4062V26.2216C144.83 26.983 144.969 27.6364 145.248 28.1818C145.526 28.7216 145.915 29.1364 146.415 29.4261C146.915 29.7102 147.501 29.8523 148.171 29.8523C148.62 29.8523 149.026 29.7898 149.39 29.6648C149.753 29.5341 150.069 29.3438 150.336 29.0938C150.603 28.8438 150.805 28.5341 150.941 28.1648L153.822 28.4886C153.64 29.25 153.293 29.9148 152.782 30.483C152.276 31.0455 151.628 31.483 150.839 31.7955C150.049 32.1023 149.146 32.2557 148.128 32.2557Z" fill="#999999"/>
<path d="M29.5 18.9279V9H19.5V18.9279H9.5V29.0721H19.5V39H29.5V29.0721H39.5V18.9279H29.5ZM29.5 28.8558H19.5V19.1457H29.5V28.8558Z" fill="#999999"/>
</svg>
