<svg width="162" height="48" viewBox="0 0 162 48" fill="none" xmlns="http://www.w3.org/2000/svg">
<path d="M58.1364 32H52.2216V14.5455H58.2557C59.9886 14.5455 61.4773 14.8949 62.7216 15.5938C63.9716 16.2869 64.9318 17.2841 65.6023 18.5852C66.2727 19.8864 66.608 21.4432 66.608 23.2557C66.608 25.0739 66.2699 26.6364 65.5938 27.9432C64.9233 29.25 63.9545 30.2528 62.6875 30.9517C61.4261 31.6506 59.9091 32 58.1364 32ZM55.3835 29.2642H57.983C59.1989 29.2642 60.2131 29.0426 61.0256 28.5994C61.8381 28.1506 62.4489 27.483 62.858 26.5966C63.267 25.7045 63.4716 24.5909 63.4716 23.2557C63.4716 21.9205 63.267 20.8125 62.858 19.9318C62.4489 19.0455 61.8438 18.3835 61.0426 17.946C60.2472 17.5028 59.2585 17.2812 58.0767 17.2812H55.3835V29.2642ZM68.7559 32V18.9091H71.8411V32H68.7559ZM70.307 17.0511C69.8184 17.0511 69.3979 16.8892 69.0456 16.5653C68.6934 16.2358 68.5172 15.8409 68.5172 15.3807C68.5172 14.9148 68.6934 14.5199 69.0456 14.196C69.3979 13.8665 69.8184 13.7017 70.307 13.7017C70.8013 13.7017 71.2218 13.8665 71.5684 14.196C71.9206 14.5199 72.0968 14.9148 72.0968 15.3807C72.0968 15.8409 71.9206 16.2358 71.5684 16.5653C71.2218 16.8892 70.8013 17.0511 70.307 17.0511ZM79.9868 37.1818C78.8789 37.1818 77.9272 37.0313 77.1317 36.7301C76.3363 36.4347 75.6971 36.0369 75.2141 35.5369C74.7312 35.0369 74.3959 34.483 74.2084 33.875L76.9868 33.2017C77.1118 33.4574 77.2937 33.7102 77.5323 33.9602C77.7709 34.2159 78.092 34.4261 78.4954 34.5909C78.9045 34.7614 79.4187 34.8466 80.038 34.8466C80.913 34.8466 81.6374 34.6335 82.2113 34.2074C82.7851 33.7869 83.0721 33.0938 83.0721 32.1278V29.6477H82.9187C82.7596 29.9659 82.5266 30.2926 82.2198 30.6278C81.9187 30.9631 81.5181 31.2443 81.0181 31.4716C80.5238 31.6989 79.9016 31.8125 79.1516 31.8125C78.1459 31.8125 77.234 31.5767 76.4158 31.1051C75.6033 30.6278 74.9556 29.9176 74.4726 28.9744C73.9954 28.0256 73.7567 26.8381 73.7567 25.4119C73.7567 23.9744 73.9954 22.7614 74.4726 21.7727C74.9556 20.7784 75.6062 20.0256 76.4243 19.5142C77.2425 18.9972 78.1545 18.7386 79.1601 18.7386C79.9272 18.7386 80.5579 18.8693 81.0522 19.1307C81.5522 19.3864 81.9499 19.696 82.2454 20.0597C82.5408 20.4176 82.7653 20.7557 82.9187 21.0739H83.0891V18.9091H86.1317V32.2131C86.1317 33.3324 85.8647 34.2585 85.3306 34.9915C84.7965 35.7244 84.0664 36.2727 83.1403 36.6364C82.2141 37 81.163 37.1818 79.9868 37.1818ZM80.0124 29.392C80.6658 29.392 81.2226 29.233 81.6829 28.9148C82.1431 28.5966 82.4925 28.1392 82.7312 27.5426C82.9698 26.946 83.0891 26.2301 83.0891 25.3949C83.0891 24.571 82.9698 23.8494 82.7312 23.2301C82.4982 22.6108 82.1516 22.1307 81.6914 21.7898C81.2368 21.4432 80.6772 21.2699 80.0124 21.2699C79.3249 21.2699 78.7511 21.4489 78.2908 21.8068C77.8306 22.1648 77.484 22.6562 77.2511 23.2812C77.0181 23.9006 76.9016 24.6051 76.9016 25.3949C76.9016 26.196 77.0181 26.8977 77.2511 27.5C77.4897 28.0966 77.8391 28.5625 78.2993 28.8977C78.7653 29.2273 79.3363 29.392 80.0124 29.392ZM88.5737 32V18.9091H91.6589V32H88.5737ZM90.1248 17.0511C89.6362 17.0511 89.2157 16.8892 88.8634 16.5653C88.5112 16.2358 88.335 15.8409 88.335 15.3807C88.335 14.9148 88.5112 14.5199 88.8634 14.196C89.2157 13.8665 89.6362 13.7017 90.1248 13.7017C90.6191 13.7017 91.0396 13.8665 91.3862 14.196C91.7384 14.5199 91.9146 14.9148 91.9146 15.3807C91.9146 15.8409 91.7384 16.2358 91.3862 16.5653C91.0396 16.8892 90.6191 17.0511 90.1248 17.0511ZM94.2478 14.5455H98.1172L103.299 27.1932H103.504L108.685 14.5455H112.555V32H109.521V20.0085H109.359L104.535 31.9489H102.268L97.4439 19.983H97.2819V32H94.2478V14.5455ZM115.141 32V18.9091H118.227V32H115.141ZM116.693 17.0511C116.204 17.0511 115.784 16.8892 115.431 16.5653C115.079 16.2358 114.903 15.8409 114.903 15.3807C114.903 14.9148 115.079 14.5199 115.431 14.196C115.784 13.8665 116.204 13.7017 116.693 13.7017C117.187 13.7017 117.607 13.8665 117.954 14.196C118.306 14.5199 118.482 14.9148 118.482 15.3807C118.482 15.8409 118.306 16.2358 117.954 16.5653C117.607 16.8892 117.187 17.0511 116.693 17.0511ZM123.765 24.3295V32H120.679V18.9091H123.628V21.1335H123.782C124.083 20.4006 124.563 19.8182 125.222 19.3864C125.887 18.9545 126.708 18.7386 127.685 18.7386C128.588 18.7386 129.375 18.9318 130.046 19.3182C130.722 19.7045 131.245 20.2642 131.614 20.9972C131.989 21.7301 132.174 22.6193 132.168 23.6648V32H129.083V24.142C129.083 23.267 128.855 22.5824 128.401 22.0881C127.952 21.5937 127.33 21.3466 126.534 21.3466C125.995 21.3466 125.515 21.4659 125.094 21.7045C124.679 21.9375 124.353 22.2756 124.114 22.7188C123.881 23.1619 123.765 23.6989 123.765 24.3295ZM139.442 32.2301C138.414 32.2301 137.493 31.9659 136.681 31.4375C135.868 30.9091 135.226 30.142 134.755 29.1364C134.283 28.1307 134.047 26.9091 134.047 25.4716C134.047 24.017 134.286 22.7898 134.763 21.7898C135.246 20.7841 135.897 20.0256 136.715 19.5142C137.533 18.9972 138.445 18.7386 139.451 18.7386C140.218 18.7386 140.848 18.8693 141.343 19.1307C141.837 19.3864 142.229 19.696 142.519 20.0597C142.809 20.4176 143.033 20.7557 143.192 21.0739H143.32V14.5455H146.414V32H143.38V29.9375H143.192C143.033 30.2557 142.803 30.5937 142.502 30.9517C142.201 31.304 141.803 31.6051 141.309 31.8551C140.814 32.1051 140.192 32.2301 139.442 32.2301ZM140.303 29.6989C140.956 29.6989 141.513 29.5227 141.973 29.1705C142.434 28.8125 142.783 28.3153 143.022 27.679C143.26 27.0426 143.38 26.3011 143.38 25.4545C143.38 24.608 143.26 23.8722 143.022 23.2472C142.789 22.6222 142.442 22.1364 141.982 21.7898C141.527 21.4432 140.968 21.2699 140.303 21.2699C139.616 21.2699 139.042 21.4489 138.581 21.8068C138.121 22.1648 137.775 22.6591 137.542 23.2898C137.309 23.9205 137.192 24.642 137.192 25.4545C137.192 26.2727 137.309 27.0028 137.542 27.6449C137.78 28.2812 138.13 28.7841 138.59 29.1534C139.056 29.517 139.627 29.6989 140.303 29.6989ZM159.328 22.3693L156.516 22.6761C156.436 22.392 156.297 22.125 156.098 21.875C155.905 21.625 155.643 21.4233 155.314 21.2699C154.984 21.1165 154.581 21.0398 154.104 21.0398C153.462 21.0398 152.922 21.179 152.484 21.4574C152.052 21.7358 151.839 22.0966 151.845 22.5398C151.839 22.9205 151.979 23.2301 152.263 23.4688C152.552 23.7074 153.03 23.9034 153.695 24.0568L155.927 24.5341C157.166 24.8011 158.087 25.2244 158.689 25.804C159.297 26.3835 159.604 27.142 159.609 28.0795C159.604 28.9034 159.362 29.6307 158.885 30.2614C158.413 30.8864 157.757 31.375 156.916 31.7273C156.075 32.0795 155.109 32.2557 154.018 32.2557C152.416 32.2557 151.126 31.9205 150.149 31.25C149.172 30.5739 148.589 29.6335 148.402 28.429L151.41 28.1392C151.547 28.7301 151.837 29.1761 152.28 29.4773C152.723 29.7784 153.3 29.929 154.01 29.929C154.743 29.929 155.331 29.7784 155.774 29.4773C156.223 29.1761 156.447 28.804 156.447 28.3608C156.447 27.9858 156.302 27.6761 156.013 27.4318C155.729 27.1875 155.285 27 154.683 26.8693L152.45 26.4006C151.195 26.1392 150.266 25.6989 149.663 25.0795C149.061 24.4545 148.763 23.6648 148.768 22.7102C148.763 21.9034 148.981 21.2045 149.425 20.6136C149.874 20.017 150.496 19.5568 151.291 19.233C152.092 18.9034 153.016 18.7386 154.061 18.7386C155.595 18.7386 156.802 19.0653 157.683 19.7188C158.57 20.3722 159.118 21.2557 159.328 22.3693Z" fill="#999999"/>
<path d="M40.5 22.0134H31.0014L37.7173 15.296L34.2026 11.7813L27.4866 18.4986V9H22.5148V18.4986L15.7974 11.7813L12.2827 15.296L19 22.0134H9.5V26.9852H19L12.2827 33.7012L15.7974 37.2173L22.5148 30.5V40H27.4866V30.5L34.2026 37.2173L37.7173 33.7012L31.0014 26.9852H40.5V22.0134Z" fill="#999999"/>
</svg>
