<svg width="131" height="48" viewBox="0 0 131 48" fill="none" xmlns="http://www.w3.org/2000/svg">
<path d="M54.0568 15.5455L58.5994 29.2841H58.7784L63.3125 15.5455H66.7898L60.6364 33H56.733L50.5881 15.5455H54.0568ZM68.2324 33V19.9091H71.3176V33H68.2324ZM69.7836 18.0511C69.2949 18.0511 68.8745 17.8892 68.5222 17.5653C68.1699 17.2358 67.9938 16.8409 67.9938 16.3807C67.9938 15.9148 68.1699 15.5199 68.5222 15.196C68.8745 14.8665 69.2949 14.7017 69.7836 14.7017C70.2779 14.7017 70.6983 14.8665 71.0449 15.196C71.3972 15.5199 71.5733 15.9148 71.5733 16.3807C71.5733 16.8409 71.3972 17.2358 71.0449 17.5653C70.6983 17.8892 70.2779 18.0511 69.7836 18.0511ZM80.3072 19.9091V22.2955H72.7816V19.9091H80.3072ZM74.6395 16.7727H77.7248V29.0625C77.7248 29.4773 77.7873 29.7955 77.9123 30.017C78.043 30.233 78.2134 30.3807 78.4236 30.4602C78.6339 30.5398 78.8668 30.5795 79.1225 30.5795C79.3157 30.5795 79.4918 30.5653 79.6509 30.5369C79.8157 30.5085 79.9407 30.483 80.0259 30.4602L80.5458 32.8722C80.381 32.929 80.1452 32.9915 79.8384 33.0597C79.5373 33.1278 79.168 33.1676 78.7305 33.179C77.9577 33.2017 77.2617 33.0852 76.6424 32.8295C76.0231 32.5682 75.5316 32.1648 75.168 31.6193C74.81 31.0739 74.6339 30.392 74.6395 29.5739V16.7727ZM85.9345 33.2642C85.1049 33.2642 84.3578 33.1165 83.693 32.821C83.0339 32.5199 82.5112 32.0767 82.1248 31.4915C81.7441 30.9062 81.5538 30.1847 81.5538 29.3267C81.5538 28.5881 81.6901 27.9773 81.9629 27.4943C82.2356 27.0114 82.6078 26.625 83.0793 26.3352C83.5509 26.0455 84.0822 25.8267 84.6731 25.679C85.2697 25.5256 85.8862 25.4148 86.5225 25.3466C87.2896 25.267 87.9117 25.196 88.389 25.1335C88.8663 25.0653 89.2129 24.9631 89.4288 24.8267C89.6504 24.6847 89.7612 24.4659 89.7612 24.1705V24.1193C89.7612 23.4773 89.5708 22.9801 89.1901 22.6278C88.8095 22.2756 88.2612 22.0994 87.5453 22.0994C86.7896 22.0994 86.1901 22.2642 85.747 22.5938C85.3095 22.9233 85.014 23.3125 84.8606 23.7614L81.9799 23.3523C82.2072 22.5568 82.5822 21.892 83.1049 21.358C83.6276 20.8182 84.2668 20.4148 85.0225 20.1477C85.7782 19.875 86.6134 19.7386 87.5282 19.7386C88.1589 19.7386 88.7867 19.8125 89.4117 19.9602C90.0367 20.108 90.6078 20.3523 91.1248 20.6932C91.6418 21.0284 92.0566 21.4858 92.3691 22.0653C92.6873 22.6449 92.8464 23.3693 92.8464 24.2386V33H89.8805V31.2017H89.7782C89.5907 31.5653 89.3265 31.9062 88.9856 32.2244C88.6504 32.5369 88.2271 32.7898 87.7157 32.983C87.21 33.1705 86.6163 33.2642 85.9345 33.2642ZM86.7356 30.9972C87.3549 30.9972 87.8918 30.875 88.3464 30.6307C88.8009 30.3807 89.1504 30.0511 89.3947 29.642C89.6447 29.233 89.7697 28.7869 89.7697 28.304V26.7614C89.6731 26.8409 89.5083 26.9148 89.2754 26.983C89.0481 27.0511 88.7924 27.1108 88.5083 27.1619C88.2242 27.2131 87.943 27.2585 87.6646 27.2983C87.3862 27.3381 87.1447 27.3722 86.9401 27.4006C86.4799 27.4631 86.068 27.5653 85.7043 27.7074C85.3407 27.8494 85.0538 28.0483 84.8436 28.304C84.6333 28.554 84.5282 28.8778 84.5282 29.2756C84.5282 29.8438 84.7356 30.2727 85.1504 30.5625C85.5651 30.8523 86.0936 30.9972 86.7356 30.9972ZM98.3139 15.5455V33H95.2287V15.5455H98.3139ZM100.903 33V15.5455H112.085V18.196H104.065V22.9347H111.318V25.5852H104.065V33H100.903ZM114.109 33V19.9091H117.194V33H114.109ZM115.66 18.0511C115.171 18.0511 114.751 17.8892 114.399 17.5653C114.046 17.2358 113.87 16.8409 113.87 16.3807C113.87 15.9148 114.046 15.5199 114.399 15.196C114.751 14.8665 115.171 14.7017 115.66 14.7017C116.154 14.7017 116.575 14.8665 116.921 15.196C117.274 15.5199 117.45 15.9148 117.45 16.3807C117.45 16.8409 117.274 17.2358 116.921 17.5653C116.575 17.8892 116.154 18.0511 115.66 18.0511ZM126.184 19.9091V22.2955H118.658V19.9091H126.184ZM120.516 16.7727H123.601V29.0625C123.601 29.4773 123.664 29.7955 123.789 30.017C123.92 30.233 124.09 30.3807 124.3 30.4602C124.51 30.5398 124.743 30.5795 124.999 30.5795C125.192 30.5795 125.368 30.5653 125.527 30.5369C125.692 30.5085 125.817 30.483 125.902 30.4602L126.422 32.8722C126.258 32.929 126.022 32.9915 125.715 33.0597C125.414 33.1278 125.045 33.1676 124.607 33.179C123.834 33.2017 123.138 33.0852 122.519 32.8295C121.9 32.5682 121.408 32.1648 121.045 31.6193C120.687 31.0739 120.51 30.392 120.516 29.5739V16.7727Z" fill="#999999"/>
<path d="M34.8193 10H18.2731L10 24.3286L18.2731 38.6571H34.818L43.0911 24.3286L34.818 10H34.8193ZM32.8401 35.2294H20.2535L13.9597 24.3286L20.2535 13.4277H32.8401L39.134 24.3286L32.8401 35.2294Z" fill="#999999"/>
<path d="M32.1488 14.6289H20.9454L15.3438 24.3313L20.9454 34.0336H32.1488L37.7505 24.3313L32.1488 14.6289ZM30.1697 30.6047H22.9259L19.3034 24.3313L22.9259 18.0579H30.1697L33.7922 24.3313L30.1697 30.6047Z" fill="#999999"/>
</svg>
