<svg width="164" height="48" viewBox="0 0 164 48" fill="none" xmlns="http://www.w3.org/2000/svg">
<path d="M67.1619 20.4347H63.9744C63.8835 19.9119 63.7159 19.4489 63.4716 19.0455C63.2273 18.6364 62.9233 18.2898 62.5597 18.0057C62.196 17.7216 61.7813 17.5085 61.3153 17.3665C60.8551 17.2188 60.358 17.1449 59.8239 17.1449C58.875 17.1449 58.0341 17.3835 57.3011 17.8608C56.5682 18.3324 55.9943 19.0256 55.5795 19.9403C55.1648 20.8494 54.9574 21.9602 54.9574 23.2727C54.9574 24.608 55.1648 25.733 55.5795 26.6477C56 27.5568 56.5739 28.2443 57.3011 28.7102C58.0341 29.1705 58.8722 29.4006 59.8153 29.4006C60.3381 29.4006 60.8267 29.3324 61.2812 29.196C61.7415 29.054 62.1534 28.8466 62.517 28.5739C62.8864 28.3011 63.196 27.9659 63.446 27.5682C63.7017 27.1705 63.8778 26.7159 63.9744 26.2045L67.1619 26.2216C67.0426 27.0511 66.7841 27.8295 66.3864 28.5568C65.9943 29.2841 65.4801 29.9261 64.8438 30.483C64.2074 31.0341 63.4631 31.4659 62.6108 31.7784C61.7585 32.0852 60.8125 32.2386 59.7727 32.2386C58.2386 32.2386 56.8693 31.8835 55.6648 31.1733C54.4602 30.4631 53.5114 29.4375 52.8182 28.0966C52.125 26.7557 51.7784 25.1477 51.7784 23.2727C51.7784 21.392 52.1278 19.7841 52.8267 18.4489C53.5256 17.108 54.4773 16.0824 55.6818 15.3722C56.8864 14.6619 58.25 14.3068 59.7727 14.3068C60.7443 14.3068 61.6477 14.4432 62.483 14.7159C63.3182 14.9886 64.0625 15.3892 64.7159 15.9176C65.3693 16.4403 65.9063 17.0824 66.3267 17.8438C66.7528 18.5994 67.0313 19.4631 67.1619 20.4347ZM74.9114 32.2557C73.633 32.2557 72.525 31.9744 71.5875 31.4119C70.65 30.8494 69.9228 30.0625 69.4057 29.0511C68.8943 28.0398 68.6387 26.858 68.6387 25.5057C68.6387 24.1534 68.8943 22.9687 69.4057 21.9517C69.9228 20.9347 70.65 20.1449 71.5875 19.5824C72.525 19.0199 73.633 18.7386 74.9114 18.7386C76.1898 18.7386 77.2978 19.0199 78.2353 19.5824C79.1728 20.1449 79.8972 20.9347 80.4086 21.9517C80.9256 22.9687 81.1841 24.1534 81.1841 25.5057C81.1841 26.858 80.9256 28.0398 80.4086 29.0511C79.8972 30.0625 79.1728 30.8494 78.2353 31.4119C77.2978 31.9744 76.1898 32.2557 74.9114 32.2557ZM74.9284 29.7841C75.6216 29.7841 76.2012 29.5937 76.6671 29.2131C77.133 28.8267 77.4796 28.3097 77.7068 27.6619C77.9398 27.0142 78.0563 26.2926 78.0563 25.4972C78.0563 24.696 77.9398 23.9716 77.7068 23.3239C77.4796 22.6705 77.133 22.1506 76.6671 21.7642C76.2012 21.3778 75.6216 21.1847 74.9284 21.1847C74.2182 21.1847 73.6273 21.3778 73.1557 21.7642C72.6898 22.1506 72.3404 22.6705 72.1074 23.3239C71.8801 23.9716 71.7665 24.696 71.7665 25.4972C71.7665 26.2926 71.8801 27.0142 72.1074 27.6619C72.3404 28.3097 72.6898 28.8267 73.1557 29.2131C73.6273 29.5937 74.2182 29.7841 74.9284 29.7841ZM82.9123 32V30.0398L89.6623 21.5767V21.4659H83.1339V18.9091H93.4378V21.0142L87.0117 29.3324V29.4432H93.6594V32H82.9123ZM97.7569 36.9091C97.3364 36.9091 96.9472 36.875 96.5893 36.8068C96.237 36.7443 95.9558 36.6705 95.7455 36.5852L96.4614 34.1818C96.9103 34.3125 97.3109 34.375 97.6632 34.3693C98.0154 34.3636 98.3251 34.2528 98.5921 34.0369C98.8649 33.8267 99.095 33.4744 99.2825 32.9801L99.5467 32.2727L94.7995 18.9091H98.0722L101.089 28.7955H101.226L104.251 18.9091H107.532L102.291 33.5852C102.047 34.2784 101.723 34.8722 101.319 35.3665C100.916 35.8665 100.422 36.2472 99.8364 36.5085C99.2569 36.7756 98.5637 36.9091 97.7569 36.9091ZM123.428 14.5455V32H120.615L112.391 20.1108H112.246V32H109.084V14.5455H111.913L120.129 26.4432H120.283V14.5455H123.428ZM131.812 32.2557C130.499 32.2557 129.366 31.983 128.411 31.4375C127.463 30.8864 126.732 30.108 126.221 29.1023C125.71 28.0909 125.454 26.9006 125.454 25.5312C125.454 24.1847 125.71 23.0028 126.221 21.9858C126.738 20.9631 127.46 20.1676 128.386 19.5994C129.312 19.0256 130.4 18.7386 131.65 18.7386C132.457 18.7386 133.218 18.8693 133.934 19.1307C134.656 19.3864 135.292 19.7841 135.843 20.3239C136.4 20.8636 136.838 21.5511 137.156 22.3864C137.474 23.2159 137.633 24.2045 137.633 25.3523V26.2983H126.903V24.2188H134.676C134.67 23.6278 134.542 23.1023 134.292 22.642C134.042 22.1761 133.693 21.8097 133.244 21.5426C132.801 21.2756 132.284 21.142 131.693 21.142C131.062 21.142 130.508 21.2955 130.031 21.6023C129.553 21.9034 129.181 22.3011 128.914 22.7955C128.653 23.2841 128.519 23.821 128.514 24.4062V26.2216C128.514 26.983 128.653 27.6364 128.931 28.1818C129.21 28.7216 129.599 29.1364 130.099 29.4261C130.599 29.7102 131.184 29.8523 131.855 29.8523C132.303 29.8523 132.71 29.7898 133.073 29.6648C133.437 29.5341 133.752 29.3438 134.019 29.0938C134.286 28.8438 134.488 28.5341 134.624 28.1648L137.505 28.4886C137.323 29.25 136.977 29.9148 136.465 30.483C135.96 31.0455 135.312 31.483 134.522 31.7955C133.732 32.1023 132.829 32.2557 131.812 32.2557ZM149.87 22.3693L147.057 22.6761C146.978 22.392 146.838 22.125 146.64 21.875C146.446 21.625 146.185 21.4233 145.855 21.2699C145.526 21.1165 145.122 21.0398 144.645 21.0398C144.003 21.0398 143.463 21.179 143.026 21.4574C142.594 21.7358 142.381 22.0966 142.387 22.5398C142.381 22.9205 142.52 23.2301 142.804 23.4688C143.094 23.7074 143.571 23.9034 144.236 24.0568L146.469 24.5341C147.708 24.8011 148.628 25.2244 149.23 25.804C149.838 26.3835 150.145 27.142 150.151 28.0795C150.145 28.9034 149.904 29.6307 149.426 30.2614C148.955 30.8864 148.299 31.375 147.458 31.7273C146.617 32.0795 145.651 32.2557 144.56 32.2557C142.958 32.2557 141.668 31.9205 140.691 31.25C139.713 30.5739 139.131 29.6335 138.943 28.429L141.952 28.1392C142.088 28.7301 142.378 29.1761 142.821 29.4773C143.265 29.7784 143.841 29.929 144.551 29.929C145.284 29.929 145.872 29.7784 146.316 29.4773C146.765 29.1761 146.989 28.804 146.989 28.3608C146.989 27.9858 146.844 27.6761 146.554 27.4318C146.27 27.1875 145.827 27 145.225 26.8693L142.992 26.4006C141.736 26.1392 140.807 25.6989 140.205 25.0795C139.603 24.4545 139.304 23.6648 139.31 22.7102C139.304 21.9034 139.523 21.2045 139.966 20.6136C140.415 20.017 141.037 19.5568 141.833 19.233C142.634 18.9034 143.557 18.7386 144.603 18.7386C146.137 18.7386 147.344 19.0653 148.225 19.7188C149.111 20.3722 149.659 21.2557 149.87 22.3693ZM158.512 18.9091V21.2955H150.986V18.9091H158.512ZM152.844 15.7727H155.929V28.0625C155.929 28.4773 155.992 28.7955 156.117 29.017C156.248 29.233 156.418 29.3807 156.628 29.4602C156.839 29.5398 157.072 29.5795 157.327 29.5795C157.52 29.5795 157.697 29.5653 157.856 29.5369C158.02 29.5085 158.145 29.483 158.231 29.4602L158.75 31.8722C158.586 31.929 158.35 31.9915 158.043 32.0597C157.742 32.1278 157.373 32.1676 156.935 32.179C156.162 32.2017 155.466 32.0852 154.847 31.8295C154.228 31.5682 153.736 31.1648 153.373 30.6193C153.015 30.0739 152.839 29.392 152.844 28.5739V15.7727Z" fill="#999999"/>
<path d="M26.2617 19.6516V23.2368H29.8469L35.5736 17.51L40.5004 22.4367V12.3776C40.5004 10.5208 38.9795 9 37.1228 9H27.0637L31.9904 13.9268L26.2636 19.6535L26.2617 19.6516Z" fill="#999999"/>
<path d="M20.1536 23.2387H23.7387V19.6535L18.0119 13.9268L22.9387 9H12.8795C11.0228 9 9.50195 10.5208 9.50195 12.3776V22.4367L14.4287 17.51L20.1555 23.2368L20.1536 23.2387Z" fill="#999999"/>
<path d="M29.8469 25.7617H26.2617V29.3469L31.9885 35.0736L27.0618 40.0004H37.1209C38.9795 40.0004 40.4985 38.4795 40.4985 36.6228V26.5637L35.5718 31.4904L29.845 25.7636L29.8469 25.7617Z" fill="#999999"/>
<path d="M23.7387 29.3469V25.7617H20.1535L14.4267 31.4885L9.5 26.5618V36.6209C9.5 38.4795 11.0209 39.9985 12.8776 39.9985H22.9367L18.01 35.0717L23.7368 29.345L23.7387 29.3469Z" fill="#999999"/>
</svg>
